<mxfile host="app.diagrams.net" modified="2024-02-22T14:05:43.074Z" agent="Mozilla/5.0 (Windows NT 10.0; Win64; x64) AppleWebKit/537.36 (KHTML, like Gecko) Chrome/121.0.0.0 Safari/537.36" etag="fEOA9-eu9_z86bTWMJiV" version="23.1.5" type="github">
  <diagram name="Page-1" id="cR6cGgek2UyNd2sbY0jU">
    <mxGraphModel dx="521" dy="605" grid="0" gridSize="10" guides="1" tooltips="1" connect="1" arrows="1" fold="1" page="0" pageScale="1" pageWidth="827" pageHeight="1169" math="0" shadow="0">
      <root>
        <mxCell id="0" />
        <mxCell id="1" parent="0" />
        <mxCell id="uB6rEbJijYcBxJJk-4rv-5" style="edgeStyle=none;curved=1;rounded=0;orthogonalLoop=1;jettySize=auto;html=1;exitX=0.5;exitY=0;exitDx=0;exitDy=0;fontSize=12;startSize=8;endSize=8;" edge="1" parent="1" source="uB6rEbJijYcBxJJk-4rv-1">
          <mxGeometry relative="1" as="geometry">
            <mxPoint x="197" y="145" as="targetPoint" />
          </mxGeometry>
        </mxCell>
        <mxCell id="uB6rEbJijYcBxJJk-4rv-1" value="Player" style="swimlane;fontStyle=1;align=center;verticalAlign=top;childLayout=stackLayout;horizontal=1;startSize=24;horizontalStack=0;resizeParent=1;resizeParentMax=0;resizeLast=0;collapsible=1;marginBottom=0;whiteSpace=wrap;html=1;" vertex="1" parent="1">
          <mxGeometry x="24" y="74" width="302" height="84" as="geometry" />
        </mxCell>
        <mxCell id="uB6rEbJijYcBxJJk-4rv-2" value="+ field: type" style="text;strokeColor=none;fillColor=none;align=left;verticalAlign=top;spacingLeft=4;spacingRight=4;overflow=hidden;rotatable=0;points=[[0,0.5],[1,0.5]];portConstraint=eastwest;whiteSpace=wrap;html=1;" vertex="1" parent="uB6rEbJijYcBxJJk-4rv-1">
          <mxGeometry y="24" width="302" height="26" as="geometry" />
        </mxCell>
        <mxCell id="uB6rEbJijYcBxJJk-4rv-3" value="" style="line;strokeWidth=1;fillColor=none;align=left;verticalAlign=middle;spacingTop=-1;spacingLeft=3;spacingRight=3;rotatable=0;labelPosition=right;points=[];portConstraint=eastwest;strokeColor=inherit;" vertex="1" parent="uB6rEbJijYcBxJJk-4rv-1">
          <mxGeometry y="50" width="302" height="8" as="geometry" />
        </mxCell>
        <mxCell id="uB6rEbJijYcBxJJk-4rv-4" value="+ method(type): type" style="text;strokeColor=none;fillColor=none;align=left;verticalAlign=top;spacingLeft=4;spacingRight=4;overflow=hidden;rotatable=0;points=[[0,0.5],[1,0.5]];portConstraint=eastwest;whiteSpace=wrap;html=1;" vertex="1" parent="uB6rEbJijYcBxJJk-4rv-1">
          <mxGeometry y="58" width="302" height="26" as="geometry" />
        </mxCell>
      </root>
    </mxGraphModel>
  </diagram>
</mxfile>
